<?xml version="1.0" ?><svg id="Layer_1" style="enable-background:new 0 0 100 100;" version="1.1" viewBox="0 0 100 100" xml:space="preserve" xmlns="http://www.w3.org/2000/svg" xmlns:xlink="http://www.w3.org/1999/xlink"><path d="M89.9,44.7l-4.4-21c-0.2-1.1-1.3-2-2.3-2c0,0,0,0,0,0c-0.1,0-13.1-1-33.1-1c-20,0-33,1-33.1,1c-1.2,0-2.2,0.8-2.4,2l-4.4,21  c-0.7,3.2,0.5,6.6,3.2,8.8l27.2,23.3c1.8,1.5,4.1,2.4,6.6,2.4h5.8c2.5,0,4.8-0.8,6.6-2.4l27.2-23.3C89.4,51.3,90.5,48,89.9,44.7z   M17,23.8c0.1,0,13-1,33-1s32.9,1,33.1,1c0.2,0,0.4,0.2,0.5,0.4l0.7,3.2c-2.9-0.2-12.6-0.9-34.4-0.9c-20.8,0-30.6,0.6-34,0.9  l0.7-3.1C16.5,23.9,16.7,23.8,17,23.8z M12.1,45.1l3.3-15.8c2.6-0.2,12.4-0.9,34.4-0.9c23.5,0,33.1,0.8,34.8,1l3.3,15.8  c0.2,0.9,0.2,1.9,0,2.8c-4-0.7-15.2-1.8-23.6,4.9c-2.4,1.9-4.4,4.3-6,7.2c-7.7-2.3-13.9-0.9-16.2-0.2c-1.5-2.8-3.5-5.1-5.9-7  c-8.9-7-20.8-5.4-24.2-4.8C11.9,47.1,11.9,46.1,12.1,45.1z M14.6,52c-0.7-0.6-1.3-1.3-1.7-2.1c3.6-0.6,14.4-1.7,22.2,4.5  c5.7,4.5,8.8,12,9,22.3c-0.8-0.3-1.6-0.8-2.3-1.3L14.6,52z M47.1,77.2c-0.3,0-0.7,0-1-0.1C46,71.1,45,65.9,43.1,61.6  c2.2-0.6,7.7-1.8,14.4,0.2c-1.9,4.2-2.9,9.4-3,15.3c-0.5,0.1-1,0.1-1.6,0.1H47.1z M85.4,52L58.2,75.4c-0.5,0.4-1.1,0.8-1.7,1.1  c0.3-10.2,3.3-17.6,9-22.1c7.5-5.9,17.7-5.1,21.7-4.5C86.7,50.6,86.1,51.4,85.4,52z"/></svg>