<svg
	height="511pt"
	viewBox="-29 0 511 511.99988"
	width="511pt"
	xmlns="http://www.w3.org/2000/svg"
>
	<path
		d="m343.570312 145.992188c-5.519531 0-10 4.480468-10 10 0 5.519531 4.480469 10 10 10 5.519532 0 9.996094-4.480469 9.996094-10 0-5.519532-4.476562-10-9.996094-10zm0 0"
	/>
	<path
		d="m203.574219 145.992188c5.519531 0 10-4.480469 10-10 0-5.519532-4.480469-10-10-10s-9.996094 4.480468-9.996094 10c0 5.519531 4.476563 10 9.996094 10zm0 0"
	/>
	<path
		d="m303.570312 0h-179.992187c-5.519531 0-9.996094 4.476562-9.996094 10v227.425781l-83.847656 83.847657c-38.980469 38.988281-38.980469 102.425781 0 141.414062 36.183594 36.1875 92.148437 38.335938 130.714844 9.300781 2.832031 3.765625 5.925781 7.347657 9.277343 10.699219 39.078126 39.074219 102.332032 39.089844 141.414063 0l127.789063-127.777344c9.4375-9.453125 14.632812-22.007812 14.632812-35.355468v-289.554688c0-5.523438-4.476562-10-10-10h-129.992188v-10c0-5.523438-4.476562-10-10-10zm59.996094 105.996094v-66h30v66zm-19.996094 0h-30v-66h30zm-101.433593 257.425781c-5.621094-13.414063-8.5625-27.90625-8.5625-42.578125 0-41.652344 23.605469-79.398438 59.996093-97.984375v76.695313c0 8.015624-3.117187 15.550781-8.777343 21.21875zm51.433593-277.425781h-19.996093v-65.996094h19.996093zm-69.996093 0v-65.996094h30v65.996094zm-49.996094 0v-65.996094h29.996094v65.996094zm-20-65.996094v65.996094h-20v-65.996094zm-109.703125 428.546875c-31.179688-31.191406-31.179688-81.941406 0-113.132813l86.777344-86.777343c1.875-1.875 2.929687-4.417969 2.929687-7.070313v-135.570312h159.992188v19.996094h-50c-5.523438 0-10 4.480468-10 10 0 5.523437 4.476562 10 10 10h50v54.851562c-48.128907 20.050781-79.996094 67.386719-79.996094 120 0 20.042969 4.644531 39.820312 13.472656 57.664062 0 0-70.917969 70.90625-71.410156 71.367188-31.222656 29.820312-80.851563 29.585938-111.765625-1.328125zm253.125 20c-31.257812 31.265625-81.859375 31.265625-113.132812-.003906-3.121094-3.121094-5.972657-6.484375-8.527344-10.046875l123.597656-123.585938c9.4375-9.449218 14.632812-22.007812 14.632812-35.355468v-173.5625h119.996094v20h-50c-5.519531 0-10 4.476562-10 10 0 5.523437 4.480469 10 10 10h50v54.847656c-48.128906 20.054687-79.996094 67.390625-79.996094 120.003906 0 20.042969 4.644532 39.820312 13.472657 57.664062zm127.785156-127.773437-42.65625 42.648437c-5.621094-13.414063-8.5625-27.910156-8.5625-42.578125 0-41.652344 23.609375-79.398438 59.996094-97.984375v76.695313c0 8.011718-3.117188 15.546874-8.777344 21.21875zm8.777344-234.777344h-19.996094v-66h19.996094zm0 0"
	/>
</svg>
