<svg viewBox="0 -76 512.001 512" xmlns="http://www.w3.org/2000/svg"><path d="m170 60c5.519531 0 10-4.480469 10-10s-4.480469-10-10-10-10 4.480469-10 10 4.480469 10 10 10zm0 0"/><path d="m482 0h-452c-16.542969 0-30 13.457031-30 30v119.410156c0 4.308594.871094 8.730469 2.71875 12.757813 36.539062 79.683593 140.445312 164.421875 199.167969 196.601562 1.472656.808594 3.125 1.230469 4.804687 1.230469h98.617188c1.679687 0 3.335937-.421875 4.808594-1.230469 58.71875-32.179687 162.625-116.917969 199.160156-196.59375 1.695312-3.6875 2.722656-8.042969 2.722656-12.765625 0-14.460937 0-104.804687 0-119.410156 0-16.542969-13.457031-30-30-30zm-189.09375 340h-73.8125c-4.601562-51.21875-26.691406-98.542969-63.035156-135.058594 15.507812-18.066406 23.941406-40.765625 23.941406-64.941406 0-13.902344-2.855469-27.480469-8.332031-40.007812h168.664062c-5.476562 12.527343-8.332031 26.105468-8.332031 40.007812 0 24.175781 8.433594 46.875 23.941406 64.941406-36.34375 36.515625-58.433594 83.839844-63.035156 135.058594zm-272.914062-199.101562-.003907-40.898438h129.296875c7.019532 12.117188 10.714844 25.839844 10.714844 40 0 19.09375-6.589844 37.023438-18.691406 51.382812-34.328125-28.769531-76.785156-46.4375-121.316406-50.484374zm350.699218 50.484374c-12.101562-14.359374-18.691406-32.289062-18.691406-51.382812 0-14.160156 3.695312-27.882812 10.714844-40h129.285156v40.898438c-44.53125 4.046874-86.976562 21.714843-121.308594 50.484374zm-340.691406-171.382812h452c5.515625 0 10 4.488281 10 10v50c-23.507812 0-449.320312 0-472 0v-50c0-5.511719 4.484375-10 10-10zm-5.34375 141.523438c89.054688 11.042968 161.613281 80.902343 173.601562 172.003906-57-34.925782-139.984374-106.859375-173.601562-172.003906zm289.085938 172.003906c11.992187-91.113282 84.558593-160.96875 173.601562-172.007813-33.613281 65.144531-116.597656 137.082031-173.601562 172.007813zm0 0"/><path d="m210 60h112c5.523438 0 10-4.476562 10-10s-4.476562-10-10-10h-112c-5.523438 0-10 4.476562-10 10s4.476562 10 10 10zm0 0"/></svg>