<svg viewBox="-134 0 512 512" xmlns="http://www.w3.org/2000/svg"><path d="m220.886719 13.273438-49.199219-12.945313c-.847656-.222656-1.703125-.32421875-2.546875-.32421875 0 0 0 0 0-.00390625h-94.28125c0 .00390625-.003906.00390625-.003906.00390625-.84375 0-1.695313.10156275-2.542969.32421875l-49.199219 12.945313c-13.609375 3.578124-23.113281 15.90625-23.113281 29.976562v212.75c0 5.523438 4.476562 10 10 10h42.042969v236c0 5.523438 4.476562 10 10 10h120c5.523437 0 10-4.476562 10-10v-116.019531c0-5.523438-4.476563-10-10-10-5.523438 0-10 4.476562-10 10v106.019531h-40v-200.757812c0-5.519532-4.476563-10-10-10-5.523438 0-10 4.480468-10 10v200.757812h-40v-243h100v54.980469c0 5.523437 4.476562 10 10 10 5.523437 0 10-4.476563 10-10v-37.980469h41.957031c5.523438 0 10-4.476562 10-10v-212.75c0-14.070312-9.503906-26.398438-23.113281-29.976562zm-98.847657 21.226562c-5.519531 0-10 4.476562-10 10v5.460938l-19-29.960938h57.917969l-18.917969 29.828125v-5.328125c0-5.523438-4.476562-10-10-10zm101.960938 211.5h-24.035156v-145c0-5.523438-4.480469-10-10-10-5.523438 0-10 4.476562-10 10v128h-115.925782v-128c0-5.523438-4.476562-10-10-10-5.519531 0-10 4.476562-10 10v145h-24.039062v-202.75c0-4.992188 3.371094-9.367188 8.199219-10.636719l42.128906-11.082031 43.226563 68.15625c2.957031 4.664062 9.136718 6.046875 13.800781 3.089844 1.289062-.816406 2.316406-1.882813 3.082031-3.089844h.007812l43.226563-68.15625 42.128906 11.082031c4.828125 1.269531 8.199219 5.644531 8.199219 10.640625zm0 0"/><path d="m182.039062 337.121094c-2.628906 0-5.210937 1.058594-7.070312 2.929687-1.859375 1.859375-2.929688 4.4375-2.929688 7.070313 0 2.628906 1.070313 5.207031 2.929688 7.070312 1.859375 1.859375 4.441406 2.929688 7.070312 2.929688 2.632813 0 5.210938-1.070313 7.070313-2.929688 1.859375-1.863281 2.929687-4.441406 2.929687-7.070312 0-2.632813-1.070312-5.210938-2.929687-7.070313-1.859375-1.871093-4.4375-2.929687-7.070313-2.929687zm0 0"/><path d="m122.039062 115c-2.628906 0-5.210937 1.070312-7.070312 2.929688-1.859375 1.859374-2.929688 4.441406-2.929688 7.070312s1.070313 5.210938 2.929688 7.070312c1.859375 1.859376 4.441406 2.929688 7.070312 2.929688 2.632813 0 5.210938-1.070312 7.070313-2.929688 1.859375-1.859374 2.929687-4.441406 2.929687-7.070312s-1.070312-5.210938-2.929687-7.070312c-1.859375-1.859376-4.4375-2.929688-7.070313-2.929688zm0 0"/><path d="m122.039062 152.5c-2.628906 0-5.210937 1.070312-7.070312 2.929688-1.859375 1.859374-2.929688 4.441406-2.929688 7.070312s1.070313 5.210938 2.929688 7.070312c1.859375 1.859376 4.441406 2.929688 7.070312 2.929688 2.632813 0 5.210938-1.070312 7.070313-2.929688 1.859375-1.859374 2.929687-4.441406 2.929687-7.070312s-1.070312-5.210938-2.929687-7.070312c-1.859375-1.859376-4.4375-2.929688-7.070313-2.929688zm0 0"/><path d="m122.039062 190c-2.628906 0-5.210937 1.070312-7.070312 2.929688-1.859375 1.859374-2.929688 4.441406-2.929688 7.070312s1.070313 5.210938 2.929688 7.070312c1.859375 1.859376 4.441406 2.929688 7.070312 2.929688 2.632813 0 5.210938-1.070312 7.070313-2.929688 1.859375-1.859374 2.929687-4.441406 2.929687-7.070312s-1.070312-5.210938-2.929687-7.070312c-1.859375-1.859376-4.429687-2.929688-7.070313-2.929688zm0 0"/></svg>